<?xml version="1.0" standalone="no"?><!DOCTYPE svg PUBLIC "-//W3C//DTD SVG 1.1//EN" "http://www.w3.org/Graphics/SVG/1.1/DTD/svg11.dtd"><svg t="1682502026056" class="icon" viewBox="0 0 1024 1024" version="1.1" xmlns="http://www.w3.org/2000/svg" p-id="2170" xmlns:xlink="http://www.w3.org/1999/xlink" width="200" height="200"><path d="M512 512m-508 0a508 508 0 1 0 1016 0 508 508 0 1 0-1016 0Z" fill="#10b981" p-id="2171" data-spm-anchor-id="a313x.7781069.0.i5" class="selected"></path><path d="M342.4 748.8c55.2-55.2 194.4-236.8 167.2-264-26.4-26.4-208.8 112.8-264 167.2-55.2 55.2-40.8 84-14.4 110.4 28 27.2 56.8 41.6 111.2-13.6z" fill="#324A5E" p-id="2172"></path><path d="M509.6 716.8L304.8 512c-21.6-21.6-20-57.6 3.2-77.6l251.2-214.4c22.4 13.6 52 10.4 72-8.8 23.2 23.2 60.8 23.2 83.2 0 3.2-3.2 5.6-6.4 8-9.6l128.8 128.8c19.2 19.2 20.8 50.4 3.2 71.2l-266.4 312c-20.8 24-56.8 24.8-78.4 3.2z" fill="#FFFFFF" p-id="2173"></path><path d="M509.6 716.8L304.8 512c-21.6-21.6-20-57.6 3.2-77.6l88-75.2c0.8 0.8 2.4 1.6 3.2 2.4 35.2 18.4 81.6 15.2 109.6 43.2 2.4 2.4 4.8 5.6 5.6 8.8 0.8 3.2-1.6 7.2-3.2 10.4-8 16-15.2 33.6-14.4 51.2 0.8 17.6 14.4 36.8 32 38.4 10.4 0.8 20-3.2 28.8-8 12-5.6 23.2-11.2 36-12.8 12.8-1.6 27.2 0.8 36 10.4 11.2 11.2 11.2 28.8 8.8 44.8-3.2 15.2-8.8 30.4-8.8 46.4 0.8 16 10.4 32.8 25.6 35.2h4l-72.8 85.6c-19.2 22.4-55.2 23.2-76.8 1.6z" fill="#FF7058" p-id="2174"></path></svg>